<svg width="167" height="51" viewBox="0 0 167 51" fill="none" xmlns="http://www.w3.org/2000/svg">
<path d="M75.6367 34.9213L74.0872 30.3003H64.126L62.5764 34.9213H58.0385L66.6716 10.2671H71.5969L80.23 34.9213H75.6367ZM65.3434 26.5095H72.8144L69.1343 15.6075H68.9959L65.3434 26.5095ZM82.582 34.9213V10.2671H86.7325V34.9213H82.582ZM100.429 17.6551C102.587 17.6551 104.386 18.4852 105.825 20.1177C107.291 21.7503 108.011 23.9085 108.011 26.5372C108.011 29.1382 107.291 31.2688 105.825 32.9013C104.358 34.5339 102.56 35.364 100.429 35.364C99.3224 35.364 98.3263 35.1426 97.4132 34.6999C96.5 34.2295 95.836 33.6208 95.3932 32.9013H95.2826V42.8349H91.132V18.0978H94.8952L95.0612 20.2561H95.1995C95.6423 19.4813 96.334 18.8726 97.2748 18.4022C98.2156 17.9318 99.2947 17.6551 100.429 17.6551ZM99.4331 31.6008C100.734 31.6008 101.757 31.1304 102.56 30.2173C103.362 29.3042 103.777 28.0591 103.777 26.5095C103.777 24.9323 103.362 23.6872 102.56 22.7741C101.785 21.8609 100.734 21.3905 99.4331 21.3905C98.2433 21.3905 97.2748 21.7779 96.4447 22.5527C95.6699 23.2998 95.2549 24.2406 95.2549 25.3474V27.644C95.2549 28.7508 95.6423 29.6916 96.4447 30.4664C97.2748 31.2135 98.2709 31.6008 99.4331 31.6008ZM123.644 18.0701H127.408V34.9213H123.644L123.423 32.763H123.34C122.87 33.5377 122.178 34.1465 121.237 34.6169C120.324 35.0873 119.3 35.3086 118.166 35.3086C116.008 35.3086 114.181 34.4785 112.742 32.846C111.276 31.2135 110.556 29.0828 110.556 26.4819C110.556 23.8809 111.276 21.7503 112.742 20.1177C114.209 18.4575 116.008 17.6274 118.166 17.6274C119.3 17.6274 120.324 17.8488 121.237 18.3192C122.178 18.7895 122.897 19.3983 123.34 20.1731H123.451L123.644 18.0701ZM123.257 27.644V25.3474C123.257 24.2406 122.842 23.3275 122.04 22.5527C121.265 21.7779 120.269 21.3905 119.051 21.3905C117.778 21.3905 116.755 21.8609 115.925 22.7741C115.122 23.6872 114.707 24.9323 114.707 26.5095C114.707 28.0591 115.122 29.2765 115.925 30.2173C116.727 31.1304 117.778 31.6008 119.051 31.6008C120.241 31.6008 121.237 31.2135 122.04 30.4664C122.842 29.6916 123.257 28.7508 123.257 27.644ZM139.306 35.364C136.843 35.364 134.796 34.5339 133.218 32.9013C131.641 31.2688 130.866 29.1382 130.866 26.5372C130.866 23.9362 131.641 21.8056 133.218 20.1731C134.823 18.5128 136.843 17.6827 139.361 17.6827C141.464 17.6827 143.235 18.2638 144.701 19.4536C146.168 20.6158 147.026 22.1653 147.33 24.1022L143.152 24.7663C142.986 23.7702 142.543 22.9677 141.824 22.359C141.132 21.7503 140.302 21.4459 139.333 21.4459C138.116 21.4459 137.092 21.9163 136.29 22.8571C135.515 23.7702 135.1 25.0153 135.1 26.5649C135.1 28.1144 135.487 29.3319 136.29 30.2727C137.092 31.1858 138.116 31.6562 139.361 31.6562C140.33 31.6562 141.16 31.3795 141.879 30.7984C142.626 30.2173 143.069 29.4149 143.263 28.3911L147.302 29.0552C146.998 30.9644 146.113 32.4863 144.646 33.6761C143.18 34.7829 141.381 35.364 139.306 35.364ZM162.659 18.0701H166.423V34.9213H162.659L162.438 32.763H162.327C161.857 33.5377 161.165 34.1465 160.224 34.6169C159.311 35.0873 158.26 35.3086 157.153 35.3086C154.995 35.3086 153.169 34.4785 151.73 32.846C150.263 31.2135 149.544 29.0828 149.544 26.4819C149.544 23.8809 150.263 21.7503 151.73 20.1177C153.196 18.4575 154.995 17.6274 157.153 17.6274C158.288 17.6274 159.311 17.8488 160.224 18.3192C161.165 18.7895 161.885 19.3983 162.327 20.1731H162.438L162.659 18.0701ZM162.272 27.644V25.3474C162.272 24.2406 161.857 23.3275 161.055 22.5527C160.28 21.7779 159.284 21.3905 158.066 21.3905C156.793 21.3905 155.77 21.8609 154.939 22.7741C154.109 23.6872 153.722 24.9323 153.722 26.5095C153.722 28.0591 154.137 29.2765 154.939 30.2173C155.742 31.1581 156.793 31.6008 158.066 31.6008C159.256 31.6008 160.252 31.2135 161.055 30.4664C161.857 29.6916 162.272 28.7508 162.272 27.644Z" fill="black"/>
<path d="M24.087 47.4835C37.175 47.4835 47.7727 36.8858 47.7727 23.7978C47.7727 10.7099 37.175 0.112183 24.087 0.112183C10.999 0.112183 0.401367 10.7099 0.401367 23.7978C0.401367 36.8858 10.999 47.4835 24.087 47.4835Z" fill="#FCD72B"/>
<path d="M33.2184 44.9379C32.8587 44.9379 32.5266 44.7995 32.2776 44.5505C32.0286 44.3014 31.8902 43.9694 31.8902 43.6097V19.8134C31.8902 18.6789 31.6135 17.5721 31.0601 16.5483C30.5067 15.5522 29.732 14.6944 28.7912 14.0856C29.0955 13.6152 29.2339 13.0618 29.2616 12.5084C29.2616 11.955 29.1232 11.4016 28.8465 10.9036C28.5698 10.4055 28.1824 10.0181 27.6844 9.71375C27.214 9.43704 26.6606 9.27102 26.0795 9.27102V11.8997H26.0242C25.9135 11.1526 25.5261 10.4885 24.945 10.0181C24.3639 9.54773 23.6445 9.27102 22.8974 9.27102V12.9512H21.846C20.2964 13.0065 18.8022 13.6982 17.7508 14.8051C16.6716 15.9395 16.0629 17.4337 16.0629 18.9832V19.0109L12.5211 21.3075C12.7702 22.8017 13.5172 24.1299 14.6517 25.126C15.7862 26.0945 17.0314 26.6479 18.5255 26.6479C18.5809 26.6479 18.6362 26.6479 18.6916 26.6479L16.561 49.0607L31.6965 50.1122L32.499 48.1476L47.6346 47.6219V44.9379H33.2184Z" fill="white"/>
<path d="M19.4661 20.1454C19.4661 19.9517 19.5492 19.758 19.6875 19.6473C19.8259 19.509 20.0196 19.426 20.1856 19.426H22.2885C22.2885 19.8134 22.1225 20.1731 21.8735 20.4498C21.5968 20.7265 21.237 20.8648 20.8497 20.8648H19.4108L19.4661 20.1454Z" fill="#FCD72B"/>
</svg>
