<svg width="1440" height="513" viewBox="0 0 1440 513" fill="none" xmlns="http://www.w3.org/2000/svg">
<g opacity="0.15">
<path d="M1441.74 430.028C864.774 578.436 828.144 235.918 -50.6191 511" stroke="white" stroke-width="3" stroke-miterlimit="10" stroke-linecap="round" stroke-linejoin="round" stroke-dasharray="1 1"/>
<path d="M1443.84 418.602C849.35 579.429 806.061 223.995 -52.3721 490.135" stroke="#F8FAFD" stroke-width="2.9355" stroke-miterlimit="10" stroke-linecap="round" stroke-linejoin="round" stroke-dasharray="1 1"/>
<path d="M1445.77 407.299C833.927 580.545 783.978 211.948 -53.9492 469.271" stroke="#F2F5FB" stroke-width="2.871" stroke-miterlimit="10" stroke-linecap="round" stroke-linejoin="round" stroke-dasharray="1 1"/>
<path d="M1447.87 395.999C818.504 581.664 761.894 200.026 -55.5273 448.532" stroke="#EBF0F9" stroke-width="2.8065" stroke-miterlimit="10" stroke-linecap="round" stroke-linejoin="round" stroke-dasharray="1 1"/>
<path d="M1449.97 384.698C803.081 582.658 739.812 188.104 -57.2793 427.668" stroke="#E5EBF7" stroke-width="2.7419" stroke-miterlimit="10" stroke-linecap="round" stroke-linejoin="round" stroke-dasharray="1 1"/>
<path d="M1451.9 373.396C787.658 583.775 717.728 176.181 -59.0322 406.928" stroke="#DEE6F5" stroke-width="2.6774" stroke-miterlimit="10" stroke-linecap="round" stroke-linejoin="round" stroke-dasharray="1 1"/>
<path d="M1454 361.971C772.235 584.769 695.821 164.135 -60.6094 386.064" stroke="#D8E1F3" stroke-width="2.6129" stroke-miterlimit="10" stroke-linecap="round" stroke-linejoin="round" stroke-dasharray="1 1"/>
<path d="M1456.11 350.669C756.812 585.886 673.738 152.212 -62.1865 365.199" stroke="#D1DCF1" stroke-width="2.5484" stroke-miterlimit="10" stroke-linecap="round" stroke-linejoin="round" stroke-dasharray="1 1"/>
<path d="M1458.03 339.369C741.389 587.005 651.655 140.291 -63.9395 344.461" stroke="#CBD6EF" stroke-width="2.4839" stroke-miterlimit="10" stroke-linecap="round" stroke-linejoin="round" stroke-dasharray="1 1"/>
<path d="M1460.14 328.067C725.965 588.122 629.571 128.368 -65.5176 323.596" stroke="#C4D1ED" stroke-width="2.4194" stroke-miterlimit="10" stroke-linecap="round" stroke-linejoin="round" stroke-dasharray="1 1"/>
<path d="M1462.07 316.641C710.543 589.115 607.489 116.321 -67.2695 302.732" stroke="#BECCEB" stroke-width="2.3548" stroke-miterlimit="10" stroke-linecap="round" stroke-linejoin="round" stroke-dasharray="1 1"/>
<path d="M1464.17 305.339C695.12 590.232 585.406 104.398 -68.8467 281.991" stroke="#B7C7E9" stroke-width="2.2903" stroke-miterlimit="10" stroke-linecap="round" stroke-linejoin="round" stroke-dasharray="1 1"/>
<path d="M1466.27 294.038C679.696 591.351 563.323 92.4766 -70.5996 261.128" stroke="#B0C2E7" stroke-width="2.2258" stroke-miterlimit="10" stroke-linecap="round" stroke-linejoin="round" stroke-dasharray="1 1"/>
<path d="M1468.2 282.738C664.274 592.345 541.24 80.5551 -72.3516 240.389" stroke="#AABDE5" stroke-width="2.1613" stroke-miterlimit="10" stroke-linecap="round" stroke-linejoin="round" stroke-dasharray="1 1"/>
<path d="M1470.3 271.312C648.851 593.462 519.157 68.5081 -73.9287 219.524" stroke="#A3B8E3" stroke-width="2.0968" stroke-miterlimit="10" stroke-linecap="round" stroke-linejoin="round" stroke-dasharray="1 1"/>
<path d="M1472.41 260.01C633.428 594.456 497.075 56.5857 -75.5059 198.66" stroke="#9DB3E1" stroke-width="2.0323" stroke-miterlimit="10" stroke-linecap="round" stroke-linejoin="round" stroke-dasharray="1 1"/>
<path d="M1474.33 248.709C617.829 595.574 474.99 44.6635 -77.2598 177.92" stroke="#96AEDE" stroke-width="1.9677" stroke-miterlimit="10" stroke-linecap="round" stroke-linejoin="round" stroke-dasharray="1 1"/>
<path d="M1476.44 237.407C602.581 596.691 453.083 32.6166 -78.8369 157.056" stroke="#90A9DC" stroke-width="1.9032" stroke-miterlimit="10" stroke-linecap="round" stroke-linejoin="round" stroke-dasharray="1 1"/>
<path d="M1478.37 226.107C587.159 597.685 431 20.6951 -80.5889 136.317" stroke="#89A4DA" stroke-width="1.8387" stroke-miterlimit="10" stroke-linecap="round" stroke-linejoin="round" stroke-dasharray="1 1"/>
<path d="M1480.47 214.68C571.735 598.802 408.917 8.77183 -82.167 115.452" stroke="#839FD8" stroke-width="1.7742" stroke-miterlimit="10" stroke-linecap="round" stroke-linejoin="round" stroke-dasharray="1 1"/>
<path d="M1482.57 203.379C556.136 599.92 386.833 -3.15033 -83.9199 94.5878" stroke="#7C9AD6" stroke-width="1.7097" stroke-miterlimit="10" stroke-linecap="round" stroke-linejoin="round" stroke-dasharray="1 1"/>
<path d="M1484.5 192.077C540.713 600.913 364.751 -15.1969 -85.4971 73.8478" stroke="#7595D4" stroke-width="1.6452" stroke-miterlimit="10" stroke-linecap="round" stroke-linejoin="round" stroke-dasharray="1 1"/>
<path d="M1486.6 180.776C525.291 602.031 342.668 -27.1194 -87.249 52.9837" stroke="#6F90D2" stroke-width="1.5806" stroke-miterlimit="10" stroke-linecap="round" stroke-linejoin="round" stroke-dasharray="1 1"/>
<path d="M1488.71 169.352C509.868 603.15 320.586 -39.0403 -88.8262 32.2452" stroke="#688BD0" stroke-width="1.5161" stroke-miterlimit="10" stroke-linecap="round" stroke-linejoin="round" stroke-dasharray="1 1"/>
<path d="M1490.63 158.05C494.445 604.143 298.502 -50.9633 -90.5791 11.3804" stroke="#6285CE" stroke-width="1.4516" stroke-miterlimit="10" stroke-linecap="round" stroke-linejoin="round" stroke-dasharray="1 1"/>
<path d="M1492.74 146.748C479.022 605.26 276.419 -63.01 -92.1562 -9.48383" stroke="#5B80CC" stroke-width="1.3871" stroke-miterlimit="10" stroke-linecap="round" stroke-linejoin="round" stroke-dasharray="1 1"/>
<path d="M1494.66 135.447C463.599 606.378 254.336 -74.9321 -93.9092 -30.2234" stroke="#557BCA" stroke-width="1.3226" stroke-miterlimit="10" stroke-linecap="round" stroke-linejoin="round" stroke-dasharray="1 1"/>
<path d="M1496.77 124.021C448.176 607.372 232.253 -86.9787 -95.4863 -51.0876" stroke="#4E76C8" stroke-width="1.2581" stroke-miterlimit="10" stroke-linecap="round" stroke-linejoin="round" stroke-dasharray="1 1"/>
<path d="M1498.87 112.72C432.753 608.489 210.345 -98.9013 -97.2393 -71.9519" stroke="#4871C6" stroke-width="1.1935" stroke-miterlimit="10" stroke-linecap="round" stroke-linejoin="round" stroke-dasharray="1 1"/>
<path d="M1500.8 101.418C417.33 609.607 188.263 -110.824 -98.8164 -92.6917" stroke="#416CC4" stroke-width="1.129" stroke-miterlimit="10" stroke-linecap="round" stroke-linejoin="round" stroke-dasharray="1 1"/>
<path d="M1502.9 90.117C401.906 610.6 166.179 -122.746 -100.569 -113.556" stroke="#3B67C2" stroke-width="1.0645" stroke-miterlimit="10" stroke-linecap="round" stroke-linejoin="round" stroke-dasharray="1 1"/>
<path d="M1505 78.8156C386.484 611.718 144.096 -134.668 -102.146 -134.296" stroke="#ACC7FF" stroke-miterlimit="10" stroke-linecap="round" stroke-linejoin="round" stroke-dasharray="1 1"/>
</g>
</svg>
