<svg width="1920" height="1505" viewBox="0 0 1920 1505" fill="none" xmlns="http://www.w3.org/2000/svg">
<path d="M996.693 1374.93V1297.07L923.249 1254.67V1338.02L854.848 1377.51V1295.62L782.667 1337.29L713.003 1297.07V1220.67C715.123 1220.11 716.691 1218.2 716.691 1215.9C716.691 1215.45 716.612 1215.03 716.499 1214.61L783.295 1176.05L783.925 1175.69V1090.88L711.747 1132.56L640.82 1091.61L569.898 1132.56L500.236 1092.34V1011.9L572.418 970.23L500.236 928.555V845.203L427.423 887.244L426.792 887.607V968.047L361.887 930.574C361.998 930.161 362.078 929.733 362.078 929.284C362.078 926.99 360.511 925.077 358.391 924.517V766.225L428.683 725.641L429.313 725.281V640.475L356.5 682.515L355.87 682.878V764.778L286.21 804.998L217.801 765.501L286.841 725.639L287.471 725.279V640.472L214.658 682.512L214.028 682.875V845.213L149.122 807.741C149.233 807.327 149.314 806.901 149.314 806.45C149.314 804.156 147.746 802.243 145.626 801.683V723.827L75.9638 683.609L144.366 644.12L145.626 644.848V643.391L146.886 642.663L145.626 641.937V560.039L78.1997 521.112C78.3106 520.699 78.3913 520.27 78.3913 519.821C78.3913 517.089 76.1756 514.873 73.4431 514.873C70.7107 514.873 68.495 517.089 68.495 519.821C68.495 522.115 70.0654 524.028 72.1828 524.588V600.988L0 642.665L70.9224 683.611L1.89053 723.469L1.26035 723.832V805.727L0 806.455L1.26035 807.184V889.081L70.8947 929.284L1.83507 969.154L1.2049 969.514V1054.32L74.0204 1012.28L74.6505 1011.91V931.449L74.7035 931.479V848.13L140.854 809.936C141.464 810.551 142.241 810.992 143.105 811.219V889.071L212.767 929.286L143.735 969.141L143.105 969.504V1051.43L77.0124 1089.59C76.1151 1088.69 74.8724 1088.12 73.4986 1088.12C70.7661 1088.12 68.5504 1090.34 68.5504 1093.07C68.5504 1095.37 70.1208 1097.28 72.2382 1097.84V1256.04L1.83255 1296.69L1.20237 1297.05V1381.86L1.31581 1381.79V1462.29L72.2382 1503.24V1504.69L73.5011 1503.97L74.7589 1504.69V1503.24L145.051 1462.66L145.681 1462.29V1377.49L77.0099 1417.14C76.1151 1416.23 74.8724 1415.67 73.4986 1415.67C72.1248 1415.67 70.8821 1416.23 69.9847 1417.14L5.03888 1379.64L72.2382 1340.84V1340.92L144.419 1299.25L216.601 1340.92V1257.55L286.838 1217L287.468 1216.64V1138.78C289.586 1138.22 291.156 1136.31 291.156 1134.02C291.156 1131.29 288.94 1129.07 286.208 1129.07C283.475 1129.07 281.26 1131.29 281.26 1134.02C281.26 1134.47 281.338 1134.89 281.451 1135.31L214.655 1173.87L214.025 1174.24V1254.64L145.679 1215.18V1052.82L215.285 1012.63L287.468 1054.31V970.956L353.619 932.765C354.229 933.38 355.005 933.819 355.87 934.048V1011.9L423.296 1050.83C423.185 1051.25 423.105 1051.67 423.105 1052.12C423.105 1052.57 423.183 1053 423.296 1053.41L356.5 1091.98L355.87 1092.34V1256.03L290.12 1294C289.223 1292.74 287.758 1291.91 286.097 1291.91C283.365 1291.91 281.149 1294.13 281.149 1296.86C281.149 1299.16 282.719 1301.07 284.837 1301.63V1381.85L355.759 1340.9V1421.34L429.202 1463.75V1378.94L359.611 1338.76L428.053 1299.25L494.221 1337.45C494.11 1337.86 494.03 1338.29 494.03 1338.74C494.03 1341.47 496.245 1343.68 498.978 1343.68C501.713 1343.68 503.926 1341.47 503.926 1338.74C503.926 1336.44 502.355 1334.53 500.238 1333.97V1175.69L569.9 1135.47L638.302 1174.96L569.27 1214.82L568.64 1215.18V1297.07L567.379 1297.8L568.64 1298.53V1378.97L498.348 1419.55L497.717 1419.91V1504.71L570.53 1462.68L571.16 1462.31V1381.88L639.562 1421.37V1422.82L640.823 1422.1L713.005 1463.77V1384.46C713.87 1384.23 714.649 1383.79 715.261 1383.17L781.41 1421.36V1504.69L852.332 1463.74V1463.76L925.145 1421.72L925.775 1421.36V1340.92L990.683 1378.4C990.57 1378.81 990.492 1379.24 990.492 1379.69C990.492 1382.42 992.707 1384.64 995.44 1384.64C998.172 1384.64 1000.39 1382.42 1000.39 1379.69C1000.38 1377.4 998.812 1375.49 996.693 1374.93ZM216.548 684.332L284.95 644.84V723.822L216.548 763.313V684.332ZM72.1273 1010.45L3.72307 1049.94V970.966L72.1273 931.477V1010.45ZM143.161 1381.85V1460.83L74.7589 1500.32V1425.38C76.8763 1424.82 78.4467 1422.91 78.4467 1420.61C78.4467 1420.16 78.3661 1419.74 78.2551 1419.32L143.161 1381.85ZM72.2382 1425.38V1500.32L3.83651 1460.83V1381.85L68.7395 1419.33C68.6286 1419.74 68.5479 1420.16 68.5479 1420.61C68.5505 1422.91 70.1208 1424.82 72.2382 1425.38ZM852.329 1378.94L783.928 1418.43V1339.47L852.329 1299.98V1378.94ZM710.482 1374.93C709.618 1375.16 708.841 1375.6 708.231 1376.21L643.343 1338.75L710.482 1299.98V1374.93ZM642.08 1256.12V1177.14L706.986 1214.61C706.875 1215.03 706.794 1215.45 706.794 1215.9C706.794 1218.2 708.362 1220.11 710.48 1220.67V1295.61L642.08 1256.12ZM710.482 1211.14C709.618 1211.37 708.841 1211.81 708.229 1212.42L643.341 1174.96L710.482 1136.2V1211.14ZM640.82 1258.31L709.222 1297.8L678.149 1315.74L640.823 1337.29L572.421 1297.8L603.493 1279.86L640.82 1258.31ZM642.08 1340.93L706.986 1378.4C706.875 1378.82 706.794 1379.24 706.794 1379.69C706.794 1380.14 706.872 1380.57 706.986 1380.98L642.08 1418.46V1340.93ZM781.407 1174.23L715.256 1212.42C714.646 1211.8 713.867 1211.37 713.003 1211.14V1134.74L781.407 1095.25V1174.23ZM429.313 1047.36V972.411L497.717 1011.9V1090.88L432.812 1053.41C432.923 1053 433.003 1052.57 433.003 1052.12C433.003 1049.83 431.433 1047.92 429.313 1047.36ZM429.313 1056.89C430.178 1056.66 430.957 1056.22 431.567 1055.61L496.452 1093.07L429.313 1131.83V1056.89ZM498.978 1009.72L430.573 970.228L464.121 950.859L498.975 930.736L567.377 970.228L498.978 1009.72ZM429.313 889.064L497.717 849.569V928.553L429.313 968.045V889.064ZM358.391 684.332L426.792 644.84V723.822L358.391 763.313V684.332ZM355.87 846.668L333.494 859.586L287.471 886.157V807.176L355.872 767.684L355.87 846.668ZM284.95 968.045L250.749 948.3L216.548 928.555V849.579L250.749 869.324L284.95 889.069V968.045ZM216.548 767.689L284.95 807.179V886.157L250.749 866.413L216.548 846.668V767.689ZM143.103 801.686C142.241 801.913 141.464 802.354 140.852 802.967L74.701 764.773V685.792L143.103 725.284V801.686ZM143.103 561.496V640.48L74.701 600.985V524.588C75.5656 524.359 76.3419 523.92 76.9519 523.305L143.103 561.496ZM73.4406 603.171L141.842 642.665L74.7035 681.428V681.426L73.4431 682.152L72.1828 681.426V681.428L5.0414 642.663L73.4406 603.171ZM3.78105 725.286L72.1828 685.794V764.775L3.78105 804.267V725.286ZM3.78105 808.633L72.1828 848.127V927.109L3.78105 887.617V808.633ZM73.4431 845.944L5.0414 806.45L36.1141 788.51L73.4406 766.961L139.609 805.162C139.498 805.575 139.417 806.004 139.417 806.453C139.417 806.901 139.496 807.327 139.609 807.743L73.4431 845.944ZM145.623 811.217C146.488 810.987 147.264 810.549 147.877 809.934L214.028 848.125V927.101L145.623 887.612V811.217ZM145.623 970.959L214.028 931.469V1010.45L145.623 1049.93V970.959ZM74.7589 1097.84C76.8763 1097.28 78.4467 1095.37 78.4467 1093.07C78.4467 1092.62 78.3686 1092.19 78.2551 1091.78L143.158 1054.31V1133.29L74.7564 1172.78L74.7589 1097.84ZM143.161 1215.17L74.7589 1254.66V1175.69L143.161 1136.2V1215.17ZM72.1273 1337.99L3.72307 1377.48V1298.5L72.1273 1259.01V1337.99ZM74.7589 1257.58L143.161 1218.09V1297.06L74.7589 1336.55V1257.58ZM216.548 1175.69L282.699 1137.5C283.309 1138.11 284.088 1138.55 284.95 1138.78V1215.18L216.548 1254.67V1175.69ZM214.081 1259V1336.55L145.679 1297.06V1218.09L214.025 1257.54V1259.03L214.081 1259ZM284.95 1049.93L216.548 1010.45V931.469L250.749 951.214L284.95 970.959V1049.93ZM287.471 968.045V889.071L326.557 866.503L355.87 849.579V924.517C353.753 925.077 352.182 926.988 352.182 929.284C352.182 929.733 352.263 930.161 352.374 930.574L287.471 968.045ZM358.391 1010.45V934.051C359.255 933.821 360.032 933.383 360.642 932.767L426.792 970.959V1047.36C425.93 1047.59 425.154 1048.03 424.541 1048.64L358.391 1010.45ZM358.391 1093.8L424.541 1055.61C425.151 1056.22 425.928 1056.66 426.792 1056.89V1133.28L425.532 1134.01L425.535 1134.02L358.391 1172.78V1093.8ZM358.391 1257.58L426.792 1218.09V1297.06L358.391 1336.55V1257.58ZM426.792 1215.17L358.391 1254.66V1175.69L426.792 1136.2V1215.17ZM287.36 1377.48V1301.63C289.477 1301.07 291.048 1299.16 291.048 1296.86C291.048 1296.7 291.015 1296.55 291 1296.4L355.759 1259.01V1337.99L287.36 1377.48ZM426.681 1459.38L358.28 1419.89V1340.9L426.681 1380.4V1459.38ZM497.717 1333.97C496.853 1334.2 496.076 1334.64 495.466 1335.25L429.313 1297.06V1218.09L497.717 1257.58V1333.97ZM429.313 1215.17V1136.19L497.717 1175.69V1254.66L429.313 1215.17ZM498.978 1173.5L430.573 1134.01L498.973 1094.52L500.238 1095.25V1095.25L567.379 1134.01L498.978 1173.5ZM640.82 1094.52L709.222 1134.01L642.08 1172.78L640.82 1173.5L639.56 1172.78L572.418 1134.01L640.82 1094.52ZM571.16 1216.63L639.562 1177.14V1256.12L571.16 1295.61V1216.63ZM568.64 1460.85L500.238 1500.34V1421.37L568.64 1381.88V1460.85ZM571.16 1378.97V1299.98L639.562 1339.47V1418.46L571.16 1378.97ZM643.343 1420.64L708.231 1383.18C708.841 1383.79 709.62 1384.23 710.482 1384.46V1459.4L643.343 1420.64ZM713.003 1374.93V1299.98L781.407 1339.47V1418.45L716.501 1380.98C716.612 1380.56 716.691 1380.14 716.691 1379.69C716.691 1377.4 715.123 1375.49 713.003 1374.93ZM783.928 1500.32V1421.36L852.329 1381.87V1460.83L783.928 1500.32ZM923.249 1419.91L854.848 1459.39V1380.42L923.249 1340.93V1419.91ZM925.77 1338.02V1259.03L994.172 1298.53V1374.93C993.31 1375.16 992.533 1375.59 991.923 1376.21L925.77 1338.02ZM1920 862.052L1849.08 821.103L1918.11 781.246L1918.74 780.883V698.988L1920 698.262L1918.74 697.533V615.638L1849.11 575.436L1918.16 535.566L1918.8 535.205V450.406L1845.98 492.444L1845.35 492.807V573.273L1845.3 573.24V656.592L1779.15 694.783C1778.54 694.168 1777.76 693.727 1776.89 693.5V533.766L1705.97 492.82V410.93L1638.54 372.002C1638.65 371.584 1638.74 371.153 1638.74 370.702C1638.74 370.253 1638.66 369.825 1638.55 369.411L1705.34 330.849L1705.97 330.486V250.081L1774.32 289.538V454.772L1842.99 415.127C1843.89 416.031 1845.13 416.591 1846.5 416.591C1849.24 416.591 1851.45 414.375 1851.45 411.643C1851.45 409.349 1849.88 407.436 1847.76 406.876V248.682L1918.17 208.033L1918.8 207.67V122.861L1847.76 163.876V163.795L1775.58 205.467L1703.4 163.795V247.17L1633.16 287.72L1632.53 288.083V365.935C1630.41 366.495 1628.84 368.408 1628.84 370.702C1628.84 372.996 1630.41 374.906 1632.53 375.468V453.333L1703.45 494.277V574.712L1635.05 614.201V533.753L1564.13 492.804V491.347L1562.86 492.076L1561.61 491.35V492.802L1491.32 533.388L1490.69 533.751V618.557L1559.35 578.912C1560.25 579.816 1561.49 580.381 1562.87 580.381C1564.25 580.381 1565.49 579.819 1566.39 578.912L1632.53 617.098V782.347L1704.71 740.672L1774.38 780.888L1844.04 821.105L1775.64 860.597L1774.38 859.869V861.326L1773.12 862.054L1774.38 862.783V944.678L1845.3 985.624V1062.02C1843.18 1062.58 1841.61 1064.49 1841.61 1066.79C1841.61 1069.52 1843.83 1071.74 1846.56 1071.74C1849.29 1071.74 1851.51 1069.52 1851.51 1066.79C1851.51 1066.34 1851.43 1065.91 1851.32 1065.5L1918.11 1026.93L1918.74 1026.57V941.766L1847.82 982.715V903.732L1920 862.052ZM1847.88 494.261L1916.28 454.772V533.748L1847.88 573.237V494.261ZM1916.22 779.428L1847.82 818.92V739.939L1916.22 700.447V779.428ZM1916.22 696.081L1847.82 656.589V577.606L1916.22 617.1V696.081ZM1846.56 658.772L1914.96 698.264L1883.89 716.204L1846.56 737.756L1780.39 699.555C1780.5 699.141 1780.58 698.715 1780.58 698.264C1780.58 697.813 1780.5 697.387 1780.39 696.974L1846.56 658.772ZM1774.38 617.11V693.5C1773.51 693.729 1772.73 694.168 1772.12 694.786L1740.17 676.342L1705.97 656.597V577.621L1740.17 597.366L1774.38 617.11ZM1776.84 289.538L1845.24 250.048V329.027L1776.84 368.516V289.538ZM1776.84 450.406V371.43L1845.24 331.941V406.879C1843.12 407.441 1841.56 409.352 1841.56 411.645C1841.56 412.094 1841.63 412.523 1841.75 412.936L1776.84 450.406ZM1847.88 166.722L1916.28 127.23V206.213L1847.88 245.705V166.722ZM1845.24 247.137L1776.84 286.626V207.65L1845.24 168.161V247.137ZM1705.92 168.161L1774.32 207.65V286.626L1705.97 247.17V245.683L1705.92 245.713V168.161H1705.92ZM1703.45 250.048V329.027L1637.3 367.216C1636.69 366.601 1635.91 366.162 1635.05 365.933V289.538L1703.45 250.048ZM1635.05 451.873V375.466C1635.91 375.239 1636.68 374.803 1637.3 374.193L1703.45 412.387V491.363L1635.05 451.873ZM1774.38 535.22V614.196L1740.18 594.452L1705.97 574.707V495.728L1774.38 535.22ZM1493.21 614.186V535.205L1561.61 495.713V570.664C1559.49 571.223 1557.92 573.134 1557.92 575.43C1557.92 575.879 1558 576.303 1558.11 576.716L1493.21 614.186ZM1564.13 570.664V495.716L1632.53 535.208V614.184L1567.63 576.714C1567.74 576.303 1567.82 575.877 1567.82 575.428C1567.82 573.137 1566.25 571.223 1564.13 570.664ZM1635.05 617.11L1703.45 577.621V656.592L1635.05 696.084V617.11ZM1635.05 698.998L1703.45 659.508V738.49L1635.05 777.981V698.998ZM1705.97 738.485V659.508L1740.17 679.253L1770.88 696.979C1770.77 697.392 1770.69 697.815 1770.69 698.264C1770.69 700.558 1772.26 702.469 1774.37 703.031V777.974L1705.97 738.485ZM1776.9 703.028C1777.76 702.799 1778.54 702.36 1779.15 701.745L1845.3 739.936V818.918L1776.9 779.426V703.028ZM1845.3 823.286L1846.56 822.56L1847.82 823.288V823.286L1914.96 862.052L1846.56 901.544L1778.16 862.052L1845.3 823.286ZM1776.9 864.237L1845.3 903.729V982.71L1776.9 943.218V864.237ZM1916.22 946.13V1025.11L1850.07 1063.3C1849.46 1062.69 1848.68 1062.25 1847.82 1062.02V985.621L1916.22 946.13ZM1496.9 452.589C1496.9 452.141 1496.81 451.712 1496.7 451.299L1563.5 412.734L1564.13 412.371V248.677L1629.88 210.713C1630.78 211.971 1632.24 212.795 1633.9 212.795C1636.64 212.795 1638.85 210.579 1638.85 207.847C1638.85 205.553 1637.28 203.64 1635.16 203.08V122.856L1564.24 163.81V83.3696L1490.8 40.9689V125.775L1560.39 165.953L1491.95 205.467L1425.78 167.269C1425.89 166.855 1425.97 166.429 1425.97 165.978C1425.97 163.246 1423.75 161.03 1421.02 161.03C1418.29 161.03 1416.07 163.246 1416.07 165.978C1416.07 168.272 1417.64 170.185 1419.76 170.745V245.68L1419.76 329.032L1350.1 369.247L1281.7 329.755L1350.73 289.896L1351.36 289.533V207.643L1352.62 206.914L1351.36 206.186V125.748L1421.65 85.1669L1422.28 84.8039V0L1349.47 42.0402L1348.84 42.4007V122.836L1280.44 83.3444V81.89L1279.18 82.6185L1206.99 40.9412V120.253C1206.13 120.482 1205.35 120.923 1204.74 121.538L1138.59 83.352V0.0226738L1067.67 40.9715V40.9538L994.857 82.9915L994.227 83.3545V163.788L925.826 124.298V122.844L924.565 123.57L923.305 122.844V124.298L853.645 164.511L781.46 122.841V206.186L713.061 245.675V165.234L639.618 122.834L568.695 81.8875V165.239L502.544 203.428C501.647 202.526 500.407 201.964 499.033 201.964C496.301 201.964 494.085 204.179 494.085 206.912C494.085 209.644 496.301 211.86 499.033 211.86C500.407 211.86 501.65 211.298 502.544 210.395L568.695 248.586V331.938L641.508 289.896L642.138 289.533V209.095L710.54 248.584V331.928L779.209 292.283C779.819 292.898 780.598 293.339 781.46 293.566V371.418L854.906 413.816V331.928L925.828 372.875V288.071L856.169 247.855L924.563 208.369L996.748 250.046V166.699L1065.15 127.21V288.091L994.857 328.674L994.227 329.037V413.846L1062.9 374.198C1063.8 375.103 1065.04 375.662 1066.41 375.662C1069.14 375.662 1071.36 373.447 1071.36 370.714C1071.36 368.42 1069.79 366.51 1067.67 365.948V289.54L1137.96 248.954L1138.59 248.591V168.153L1207 207.643V284.045C1204.88 284.605 1203.31 286.515 1203.31 288.812C1203.31 289.26 1203.39 289.686 1203.5 290.102L1136.7 328.667L1136.07 329.027V413.828L1208.26 372.156L1279.18 413.105L1350.1 372.159L1421.03 413.105L1490.69 372.887V447.825C1488.57 448.385 1487 450.295 1487 452.592C1487 455.324 1489.22 457.54 1491.95 457.54C1494.68 457.537 1496.9 455.322 1496.9 452.589ZM1561.61 410.917L1495.46 449.106C1494.85 448.491 1494.07 448.052 1493.2 447.823V371.43L1494.47 370.702L1561.61 331.938V410.917ZM1422.28 250.048L1490.69 289.538V368.519L1422.28 329.027V250.048ZM1493.21 289.538L1561.61 250.048V329.027L1493.21 368.516V289.538ZM1561.61 247.137L1493.2 286.626V207.65L1561.61 168.161V247.137ZM1632.64 127.23V203.088C1630.52 203.647 1628.95 205.558 1628.95 207.852C1628.95 208.011 1628.99 208.159 1629 208.316L1564.24 245.705V166.722L1632.64 127.23ZM1493.32 45.3348L1561.72 84.8266V163.808L1493.32 124.316V45.3348ZM1422.29 170.745C1423.15 170.515 1423.93 170.077 1424.54 169.462L1490.69 207.653V286.626L1422.29 247.137V170.745ZM1279.18 246.406L1210.78 206.914L1241.85 188.974L1279.18 167.422L1347.58 206.914L1316.51 224.854L1279.18 246.406ZM1209.52 129.786C1210.38 129.556 1211.16 129.118 1211.77 128.503L1276.66 165.965L1209.52 204.731V129.786ZM1277.92 163.785L1213.01 126.312C1213.12 125.899 1213.2 125.47 1213.2 125.022C1213.2 124.573 1213.12 124.147 1213.01 123.734L1277.92 86.2609V163.785ZM1277.92 248.589V327.573L1213.01 290.097C1213.12 289.684 1213.2 289.258 1213.2 288.812C1213.2 286.518 1211.64 284.607 1209.52 284.045V209.097L1277.92 248.589ZM1209.52 293.576C1210.38 293.346 1211.16 292.908 1211.77 292.29L1276.66 329.755L1209.52 368.519V293.576ZM1348.84 288.078L1280.44 327.573V248.589L1348.84 209.097V288.078ZM1351.36 43.8602L1419.76 4.37088V83.3495L1351.36 122.839V43.8602ZM1348.84 125.75V204.731L1280.44 165.239V86.2584L1348.84 125.75ZM1276.66 84.0754L1211.77 121.541C1211.16 120.923 1210.38 120.484 1209.52 120.255V45.3096L1276.66 84.0754ZM1136.07 4.39105V83.3545L1067.67 122.844V43.8829L1136.07 4.39105ZM923.307 127.207V206.183L854.906 245.672V166.696L923.307 127.207ZM783.981 127.207L852.385 166.696V245.672L818.184 225.928L783.983 206.183V127.207H783.981ZM852.385 327.56L818.184 307.815L787.479 290.09C787.593 289.676 787.671 289.25 787.671 288.799C787.671 286.505 786.101 284.592 783.983 284.032V209.092L818.184 228.837L852.385 248.581V327.56ZM710.54 245.672L642.138 206.181V127.2L710.54 166.691V245.672ZM571.216 86.2533L639.618 125.748V204.729L571.216 165.237V86.2533ZM503.79 205.621L569.956 167.42L638.357 206.912L607.285 224.851L569.956 246.403L503.79 208.202C503.901 207.789 503.981 207.36 503.981 206.912C503.981 206.463 503.901 206.034 503.79 205.621ZM639.618 288.076L571.216 327.57V248.586L639.618 209.095V288.076ZM713.061 327.56V248.584L781.463 209.095V284.035C779.345 284.595 777.775 286.508 777.775 288.802C777.775 289.25 777.855 289.676 777.966 290.092L713.061 327.56ZM852.385 409.452L783.981 369.963V293.568C784.845 293.341 785.622 292.9 786.234 292.285L818.184 310.729L852.385 330.474V409.452ZM923.307 368.509L854.906 329.017V250.038L923.307 289.528V368.509ZM994.227 245.68L925.826 206.188V127.207L994.227 166.699V245.68ZM996.748 163.788V84.8115L1065.15 45.3222V124.298L996.748 163.788ZM1136.07 86.281V165.242L1067.67 204.731V125.77L1136.07 86.281ZM996.748 409.475V330.492L1065.15 291V365.945C1063.03 366.505 1061.46 368.415 1061.46 370.712C1061.46 371.163 1061.54 371.589 1061.65 372.002L996.748 409.475ZM1136.07 247.134L1067.67 286.629V207.645L1136.07 168.153V247.134ZM1138.59 86.2659L1203.5 123.736C1203.39 124.15 1203.31 124.576 1203.31 125.022C1203.31 127.316 1204.88 129.229 1206.99 129.788V204.731L1138.59 165.242V86.2659ZM1138.59 330.486L1204.74 292.295C1205.35 292.91 1206.13 293.349 1206.99 293.578V369.973L1138.59 409.463V330.486H1138.59ZM1279.18 410.196L1210.78 370.704L1277.92 331.941L1279.18 331.212L1280.44 331.941L1347.58 370.704L1279.18 410.196ZM1352.62 370.704L1421.02 331.212L1489.42 370.704L1421.02 410.196L1352.62 370.704Z" fill="#2C78F6" fill-opacity="0.1"/>
</svg>
