<svg width="308" height="52" viewBox="0 0 308 52" fill="none" xmlns="http://www.w3.org/2000/svg">
<g clip-path="url(#clip0_1296_167)">
<path d="M152.878 13.0183H158.511C160.989 13.0183 162.838 11.2772 162.838 8.97285C162.838 6.66847 160.989 5.12198 158.511 5.12198H152.878V13.0183ZM155.52 17.6322H152.878V27.8841H146.994V0.502991H159.053C165.695 0.502991 168.716 4.1183 168.716 9.04966C168.716 13.1156 166.028 16.1062 161.655 17.202L168.88 27.8841H162.116L155.515 17.6322H155.52ZM268.695 13.0183H274.328C276.807 13.0183 278.656 11.2772 278.656 8.97285C278.656 6.66847 276.807 5.12198 274.328 5.12198H268.695V13.0183ZM271.338 17.6322H268.695V27.8841H262.812V0.502991H274.871C281.513 0.502991 284.534 4.1183 284.534 9.04966C284.534 13.1156 281.846 16.1062 277.473 17.202L284.698 27.8841H277.933L271.333 17.6322H271.338ZM242.405 22.8759V16.2649H255.136V11.3387H242.405V5.51117H255.765V0.502991H236.521V27.8841H255.975V22.8759H242.4H242.405ZM225.865 14.1551C225.865 8.99333 222.04 5.51117 215.905 5.51117H210.779V22.8759H215.905C222.04 22.8759 225.865 19.276 225.865 14.1551ZM231.831 14.1551C231.831 21.9798 225.317 27.8841 215.905 27.8841H204.895V0.502991H215.905C225.317 0.502991 231.831 6.3305 231.831 14.1551ZM118.921 0.502991V5.51117H127.325V27.8841H133.208V5.51117H141.612V0.502991H118.921ZM190.782 17.3608L186.957 6.68384L183.05 17.3608H190.782ZM183.3 0.502991H190.695L200.865 27.8841H194.643L190.823 17.6373L188.094 22.3689H181.16L179.055 27.8841H172.839L183.3 0.502991ZM109.166 17.3608L105.341 6.68384L101.434 17.3608H109.166ZM101.685 0.502991H109.079L119.249 27.8841H113.027L109.207 17.6373L106.478 22.3689H99.5441L97.4395 27.8841H91.2228L101.685 0.502991ZM80.6124 36.3898L86.6704 32.8923V0.502991H80.6124V36.3898ZM19.7052 21.5855L8.8593 0.502991H0.625V27.8841H6.50884V6.80162L17.3496 27.8841H25.5839V0.502991H19.7001V21.5855H19.7052ZM67.3955 21.5855L56.5547 0.502991H48.3204V27.8841H54.2043V6.80162L65.0451 27.8841H73.2794V0.502991H67.3955V21.5855ZM34.1255 0.502991H40.0093V27.8841H34.1255V0.502991Z" fill="black"/>
<path d="M149.697 49.151V43.052H159.161V40.763H149.697V34.9662H160.318V32.6158H147.004V51.4963H160.697V49.151H149.697Z" fill="#FF4200"/>
<path d="M172.393 51.7114C170.954 51.7114 169.628 51.4707 168.419 50.9944C167.206 50.5182 166.156 49.8423 165.265 48.9717C164.374 48.1012 163.677 47.0821 163.176 45.9094C162.674 44.7419 162.423 43.4566 162.423 42.0535C162.423 40.6504 162.674 39.365 163.176 38.1975C163.677 37.0299 164.379 36.0109 165.28 35.1352C166.176 34.2647 167.236 33.5887 168.45 33.1125C169.664 32.6362 170.99 32.3956 172.424 32.3956C173.858 32.3956 175.225 32.6414 176.454 33.1381C177.683 33.6348 178.733 34.3671 179.593 35.3349L177.842 37.035C177.125 36.2823 176.316 35.719 175.414 35.3503C174.513 34.9816 173.556 34.7972 172.531 34.7972C171.507 34.7972 170.488 34.9765 169.582 35.3349C168.675 35.6934 167.887 36.2003 167.221 36.8456C166.555 37.4908 166.038 38.2589 165.669 39.1499C165.301 40.041 165.116 41.0088 165.116 42.0483C165.116 43.0879 165.301 44.0557 165.669 44.9467C166.038 45.8378 166.555 46.6059 167.221 47.2511C167.887 47.8963 168.67 48.4033 169.582 48.7618C170.488 49.1202 171.471 49.2994 172.531 49.2994C173.591 49.2994 174.518 49.1151 175.414 48.7464C176.311 48.3777 177.12 47.8093 177.842 47.036L179.593 48.7362C178.733 49.7091 177.683 50.4465 176.454 50.9484C175.225 51.4502 173.868 51.7011 172.398 51.7011L172.393 51.7114Z" fill="#FF4200"/>
<path d="M191.023 51.7114C189.584 51.7114 188.252 51.4707 187.018 50.9842C185.789 50.4977 184.724 49.8218 183.823 48.9461C182.921 48.0756 182.225 47.0565 181.718 45.8838C181.216 44.7163 180.965 43.4412 180.965 42.0535C180.965 40.6657 181.216 39.3906 181.718 38.2231C182.22 37.0555 182.921 36.0365 183.823 35.1608C184.719 34.2903 185.779 33.6092 187.003 33.1227C188.227 32.6362 189.563 32.3956 191.018 32.3956C192.472 32.3956 193.783 32.6362 194.991 33.1125C196.205 33.5887 197.265 34.2647 198.171 35.1352C199.078 36.0058 199.779 37.0299 200.276 38.1975C200.773 39.365 201.019 40.6504 201.019 42.0535C201.019 43.4566 200.773 44.7419 200.276 45.9094C199.779 47.077 199.083 48.1012 198.171 48.9717C197.265 49.8423 196.205 50.5182 194.991 50.9944C193.778 51.4707 192.451 51.7114 191.018 51.7114H191.023ZM191.023 49.3097C192.062 49.3097 193.03 49.1305 193.921 48.772C194.812 48.4135 195.585 47.9066 196.241 47.246C196.896 46.5905 197.408 45.8224 197.777 44.9416C198.146 44.0608 198.33 43.0981 198.33 42.0535C198.33 41.0088 198.146 40.0461 197.777 39.1653C197.408 38.2845 196.896 37.5164 196.241 36.8609C195.585 36.2055 194.812 35.6985 193.921 35.3349C193.03 34.9765 192.067 34.7972 191.023 34.7972C189.978 34.7972 188.99 34.9765 188.099 35.3349C187.208 35.6934 186.429 36.2003 185.769 36.8609C185.103 37.5164 184.586 38.2845 184.217 39.1653C183.848 40.0461 183.664 41.0088 183.664 42.0535C183.664 43.0981 183.848 44.0608 184.217 44.9416C184.586 45.8224 185.103 46.5905 185.769 47.246C186.434 47.9015 187.213 48.4084 188.099 48.772C188.99 49.1305 189.963 49.3097 191.023 49.3097Z" fill="#FF4200"/>
<path d="M210.108 51.7114C208.669 51.7114 207.297 51.4912 205.986 51.0508C204.675 50.6104 203.64 50.042 202.888 49.3404L203.886 47.2357C204.603 47.8656 205.52 48.3879 206.636 48.7976C207.752 49.2124 208.91 49.4172 210.113 49.4172C211.209 49.4172 212.1 49.2892 212.781 49.0383C213.462 48.7874 213.969 48.4391 214.292 47.9987C214.614 47.5584 214.778 47.0616 214.778 46.5035C214.778 45.8582 214.568 45.3359 214.143 44.9416C213.723 44.5473 213.175 44.2247 212.499 43.984C211.824 43.7433 211.086 43.5283 210.277 43.349C209.468 43.1698 208.654 42.9598 207.84 42.714C207.02 42.4734 206.278 42.161 205.602 41.7821C204.926 41.4031 204.383 40.8962 203.973 40.256C203.559 39.6159 203.354 38.7966 203.354 37.7878C203.354 36.779 203.61 35.9238 204.122 35.1045C204.634 34.2852 205.422 33.6297 206.493 33.1381C207.563 32.6465 208.925 32.3956 210.574 32.3956C211.67 32.3956 212.756 32.539 213.836 32.8257C214.917 33.1125 215.849 33.5273 216.637 34.065L215.746 36.2208C214.937 35.6831 214.082 35.2888 213.186 35.0482C212.284 34.8075 211.414 34.6846 210.569 34.6846C209.509 34.6846 208.638 34.8177 207.952 35.0891C207.271 35.3605 206.769 35.719 206.457 36.1696C206.145 36.6203 205.986 37.1221 205.986 37.6803C205.986 38.346 206.196 38.8785 206.621 39.2728C207.041 39.6672 207.589 39.9846 208.265 40.2151C208.941 40.4506 209.678 40.6606 210.487 40.8501C211.296 41.0395 212.11 41.2495 212.925 41.485C213.744 41.7206 214.486 42.0227 215.162 42.4017C215.838 42.7806 216.381 43.2825 216.791 43.9123C217.206 44.5422 217.41 45.3513 217.41 46.3396C217.41 47.3279 217.149 48.178 216.627 48.9973C216.105 49.8166 215.301 50.4721 214.215 50.9637C213.129 51.4604 211.757 51.7062 210.103 51.7062L210.108 51.7114Z" fill="#FF4200"/>
<path d="M226.577 51.4963V44.9211L219.085 32.6158H221.968L228.005 42.5758L234.069 32.6158H236.736L229.245 44.9621V51.4963H226.577Z" fill="#FF4200"/>
<path d="M244.556 51.7114C243.117 51.7114 241.744 51.4912 240.434 51.0508C239.123 50.6104 238.088 50.042 237.335 49.3404L238.334 47.2357C239.051 47.8656 239.968 48.3879 241.084 48.7976C242.2 49.2124 243.358 49.4172 244.561 49.4172C245.657 49.4172 246.548 49.2892 247.229 49.0383C247.91 48.7874 248.417 48.4391 248.74 47.9987C249.062 47.5584 249.226 47.0616 249.226 46.5035C249.226 45.8582 249.016 45.3359 248.591 44.9416C248.171 44.5473 247.623 44.2247 246.947 43.984C246.271 43.7433 245.534 43.5283 244.725 43.349C243.916 43.1698 243.102 42.9598 242.287 42.714C241.468 42.4734 240.725 42.161 240.049 41.7821C239.374 41.4031 238.831 40.8962 238.421 40.256C238.006 39.6159 237.801 38.7966 237.801 37.7878C237.801 36.779 238.057 35.9238 238.57 35.1045C239.082 34.2852 239.87 33.6297 240.941 33.1381C242.011 32.6465 243.373 32.3956 245.022 32.3956C246.118 32.3956 247.203 32.539 248.284 32.8257C249.364 33.1125 250.296 33.5273 251.085 34.065L250.194 36.2208C249.385 35.6831 248.53 35.2888 247.633 35.0482C246.732 34.8075 245.862 34.6846 245.017 34.6846C243.957 34.6846 243.086 34.8177 242.4 35.0891C241.719 35.3605 241.217 35.719 240.905 36.1696C240.592 36.6203 240.434 37.1221 240.434 37.6803C240.434 38.346 240.644 38.8785 241.069 39.2728C241.488 39.6672 242.036 39.9846 242.712 40.2151C243.388 40.4506 244.126 40.6606 244.935 40.8501C245.744 41.0395 246.558 41.2495 247.372 41.485C248.192 41.7206 248.934 42.0227 249.61 42.4017C250.286 42.7806 250.829 43.2825 251.239 43.9123C251.653 44.5422 251.858 45.3513 251.858 46.3396C251.858 47.3279 251.597 48.178 251.075 48.9973C250.552 49.8166 249.748 50.4721 248.663 50.9637C247.577 51.4604 246.205 51.7062 244.551 51.7062L244.556 51.7114Z" fill="#FF4200"/>
<path d="M259.273 51.4962V34.9662H252.806V32.6208H268.414V34.9662H261.946V51.4962H259.278H259.273Z" fill="#FF4200"/>
<path d="M274.047 49.151V43.052H283.505V40.763H274.047V34.9662H284.667V32.6158H271.348V51.4963H285.041V49.151H274.047Z" fill="#FF4200"/>
<path d="M307.875 51.4963L307.85 32.6158H305.638L297.869 45.8787L290.004 32.6158H287.792V51.4963H290.383V37.8134L297.198 49.2022H298.443L305.264 37.7315L305.289 51.4963H307.875Z" fill="#FF4200"/>
</g>
<defs>
<clipPath id="clip0_1296_167">
<rect width="307.25" height="51.2083" fill="white" transform="translate(0.625 0.502991)"/>
</clipPath>
</defs>
</svg>
